<svg xmlns="http://www.w3.org/2000/svg" width="32" height="32">
  <g fill="none" fill-rule="evenodd">
    <path fill="#2777F8" d="M16 0c8.837 0 16 7.163 16 16s-7.163 16-16 16S0 24.837 0 16 7.163 0 16 0z"/>
    <path fill="#FFF" d="M21.711 7.385a.217.217 0 0 0-.057.008l-.04.015c-.396.15-.97.312-1.604.312h-6.078c-.39 0-.731.19-.935.476l-2.92 5.801s1.512.176 1.553.182c1.346.206 2.944.598 4.052 1.265 1.593.96 2.589 2.354 2.488 3.85-.196 2.901-2.928 4.206-5.076 4.52-1.509.209-2.51 0-2.51 0s1.23.742 3.005.797c3.029.093 5.385-1.195 6.63-3.057 1.968-2.938.869-7.614-4.289-9.006-.99-.267-2.363-.52-2.363-.52l.735-1.441a1.129 1.129 0 0 1 1.054-.696c.022 0 .044 0 .067.002H20.059c.426 0 .797-.228.99-.565l.02-.04.811-1.578a.191.191 0 0 0 .034-.066.184.184 0 0 0 .01-.056.208.208 0 0 0-.213-.203z"/>
  </g>
</svg>
