<svg xmlns="http://www.w3.org/2000/svg" viewBox="0 0 256 256" xmlns:v="https://vecta.io/nano"><g fill="none" stroke-width="2"><path stroke="#143c7b" vector-effect="non-scaling-stroke" d="M2.28 206.97q4.32 21.01 20.06 34.09c10.84 9.01 23.82 13.62 37.91 13.64q63 .06 126.01.04 14.44-.01 19.94-.94c23.85-4.03 43.06-22.86 47.49-46.89"/><path stroke="gray" vector-effect="non-scaling-stroke" d="M253.69 206.91q1.04-6.01 1.04-8.66.03-68.75-.07-137.5c-.05-28.48-18.98-52.94-46.99-58.34q-5.82-1.13-19.92-1.14-58.88-.04-117.76-.01-14.67.01-19.94.85-19.37 3.08-32.63 17.33Q1.28 36.79 1.27 62q-.04 68.38.01 136.75 0 2.12 1 8.22"/><g stroke="#93bcfb"><path vector-effect="non-scaling-stroke" d="M253.69 206.91c-81.75-32.47-169.42-33.55-251.41.06M108.81 65.22q2.76-5.16 5.59-10.81 2.7-5.39 8.85-5.39 17.88.01 35.75.07c5.59.01 7.73-1.91 10.35-6.89q2.94-5.59 5.54-11.12a1.5 1.5 0 0 0-1.88-2.05c-4.74 1.77-9.02 2.5-14.45 2.5q-23.4.02-46.81.04-6.13 0-8.47 4.67-11.35 22.63-22.59 45.08a.48.48 0 0 0 .39.69c21.01 1.68 50.39 7.19 60.96 28.46 5.29 10.64 2.99 22.67-4 32-11.37 15.15-34.94 20-52.59 17.62a.24.24 0 0 0-.26.31q.12.43.52.62c24.86 11.94 62.01 4.44 76.77-20.29q10.35-17.34 4.22-36.36c-8.46-26.21-33.26-33.92-57.46-38.26q-.83-.15-.43-.89M137.9 221.2l.02-6.66a.54.53.5 0 1 .54-.52l10.79.02a.62.62 0 0 0 .63-.67l-.13-1.92q-.05-.74-.8-.74l-10.49.02q-.52.01-.52-.52l-.04-5.01q0-.84-.84-.82l-1.82.05q-.81.02-.83.83l-.09 4.44q-.02 1.02-1.03 1.01l-4.7-.06q-1.08-.01-.81-1.06l.72-2.8q.24-.94-.71-1.11l-1.83-.33a.88.87-79 0 0-1.02.69q-1.45 7.07-5.9 12.73a1.22 1.22 0 0 0-.03 1.48l1.14 1.55q.7.95 1.36-.04l4.82-7.29a.91.91 0 0 1 .76-.41l6.94-.06q.37-.01.37.37l-.01 6.97a.41.41 0 0 1-.41.41h-9.47q-.74 0-.74.74v1.85q.01.82.82.82l9.47-.04a.32.31.9 0 1 .32.32l-.06 7.81a.32.32 0 0 1-.32.32l-13.51-.03q-1.22 0-1.24 1.22l-.01 1.23q-.01 1 1 1l31.02.03a.97.96-1.9 0 0 .97-1.03l-.09-1.38q-.07-1.08-1.15-1.08l-12.5.03a.57.57 0 0 1-.57-.57l-.01-7.23q0-.58.58-.59l10.03-.12a.56.55 89.5 0 0 .55-.57l-.05-1.99q-.02-.75-.77-.75l-9.8.01a.55.54.5 0 1-.55-.55m37.59-7.21a.73.73 0 0 1-.73.73h-8.75a.77.76 90 0 0-.76.77l-.01 1.76q0 .75.76.75l9-.01q.5 0 .5.51l-.01 3.91q0 .5-.5.49l-6.43-.11q-.93-.02-.93.9v13.36q0 1.18 1.18 1.22 1.54.05 2.48-1.09.37-.45.96-.46l10.25-.04q.57 0 1 .39.97.89 2.31 1.13 1.52.26 1.52-1.28l-.04-13.42q0-.53-.54-.54l-7.06-.13q-.63-.02-.64-.64l-.05-3.43q-.01-.76.74-.76l8.73-.04q.93 0 .97-.93l.06-1.27a1 .99 1.4 0 0-.99-1.03l-8.84-.11q-.69-.01-.67-.7l.1-4.07a.7.69 85.3 0 1 .55-.66l7.62-1.69a.54.53-21.4 0 0 .35-.79l-1.02-1.77q-.38-.65-1.11-.45-9.12 2.44-18.55 2.32-1.05-.01-.7.98l.47 1.32q.36.99 1.41.94l6.85-.34a.51.5-1.1 0 1 .54.51l-.02 3.77m-10.71-4.138a.71.71 0 0 0-.117-.997l-5.289-4.177a.71.71 0 0 0-.997.117l-1.116 1.413a.71.71 0 0 0 .117.997l5.289 4.177a.71.71 0 0 0 .997-.117l1.116-1.413m-93.61 3.688a.55.55 0 0 1 .9.43l-.05 19.59a1.03 1.03 0 0 0 1.04 1.03l2.24-.02q.85-.01.85-.87l-.11-24.26a1.62 1.61 73.8 0 0-2.47-1.36l-6.65 4.18q-.93.59-.92 1.69l.02 1.23q.01 1.04.99.7 2.28-.8 4.16-2.34m15.89.2l.03 19.8q0 .94.95.96l2.27.03q.82.01.82-.81l-.02-24.18a1.83 1.83 0 0 0-3.08-1.33q-2.59 2.43-6.04 3.82-.97.39-.98 1.44l-.02 1.47q-.01 1.25 1.17.85 2.32-.8 4.23-2.36a.41.41 0 0 1 .67.31m13.52 4.54l.64-6.26a.34.34 0 0 1 .34-.31l11.7-.05a.69.69 0 0 0 .69-.67l.03-2.23q.01-.74-.72-.74l-14.78.03a.5.5 0 0 0-.5.46l-1.31 13.63q-.05.55.48.68c4.09 1.03 5.28-3.78 9.87-2.57 5.29 1.39 5.69 9.69-.1 11.05q-5.22 1.22-6.83-3.48-.2-.6-.83-.59l-2.44.03q-.58 0-.52.58c1.02 10.81 20.28 9 18.72-3.1q-1.44-11.06-14.16-6.25-.32.12-.28-.21m63.412 1.069a.86.86 0 0 0-.093-1.213l-5.178-4.438a.86.86 0 0 0-1.213.093l-1.08 1.26a.86.86 0 0 0 .093 1.213l5.178 4.438a.86.86 0 0 0 1.213-.093l1.08-1.26m.892 5.784a.55.55 0 0 0-.306-.715l-2.303-.921a.55.55 0 0 0-.715.306l-4.865 12.163a.55.55 0 0 0 .306.715l2.303.921a.55.55 0 0 0 .715-.306l4.865-12.163"/><path vector-effect="non-scaling-stroke" d="M183.735 226.691a.58.58 0 0 0-.579-.581l-11.4-.02a.58.58 0 0 0-.581.579l-.01 5.92a.58.58 0 0 0 .579.581l11.4.02a.58.58 0 0 0 .581-.579l.01-5.92"/></g></g><path d="M0 0h256v256H0V0zm2.28 206.97q4.32 21.01 20.06 34.09c10.84 9.01 23.82 13.62 37.91 13.64q63 .06 126.01.04 14.44-.01 19.94-.94c23.85-4.03 43.06-22.86 47.49-46.89q1.04-6.01 1.04-8.66.03-68.75-.07-137.5c-.05-28.48-18.98-52.94-46.99-58.34q-5.82-1.13-19.92-1.14-58.88-.04-117.76-.01-14.67.01-19.94.85-19.37 3.08-32.63 17.33Q1.28 36.79 1.27 62q-.04 68.38.01 136.75 0 2.12 1 8.22z"/><path fill="#fff" d="M253.69 206.91c-81.75-32.47-169.42-33.55-251.41.06q-1-6.1-1-8.22Q1.23 130.38 1.27 62q.01-25.21 16.15-42.56Q30.68 5.19 50.05 2.11q5.27-.84 19.94-.85 58.88-.03 117.76.01 14.1.01 19.92 1.14c28.01 5.4 46.94 29.86 46.99 58.34q.1 68.75.07 137.5 0 2.65-1.04 8.66zM108.81 65.22q2.76-5.16 5.59-10.81 2.7-5.39 8.85-5.39 17.88.01 35.75.07c5.59.01 7.73-1.91 10.35-6.89q2.94-5.59 5.54-11.12a1.5 1.5 0 0 0-1.88-2.05c-4.74 1.77-9.02 2.5-14.45 2.5q-23.4.02-46.81.04-6.13 0-8.47 4.67-11.35 22.63-22.59 45.08a.48.48 0 0 0 .39.69c21.01 1.68 50.39 7.19 60.96 28.46 5.29 10.64 2.99 22.67-4 32-11.37 15.15-34.94 20-52.59 17.62a.24.24 0 0 0-.26.31q.12.43.52.62c24.86 11.94 62.01 4.44 76.77-20.29q10.35-17.34 4.22-36.36c-8.46-26.21-33.26-33.92-57.46-38.26q-.83-.15-.43-.89z"/><path d="M108.81 65.22q-.4.74.43.89c24.2 4.34 49 12.05 57.46 38.26q6.13 19.02-4.22 36.36c-14.76 24.73-51.91 32.23-76.77 20.29q-.4-.19-.52-.62a.24.24 0 0 1 .26-.31c17.65 2.38 41.22-2.47 52.59-17.62 6.99-9.33 9.29-21.36 4-32-10.57-21.27-39.95-26.78-60.96-28.46a.48.48 0 0 1-.39-.69q11.24-22.45 22.59-45.08 2.34-4.67 8.47-4.67 23.41-.02 46.81-.04c5.43 0 9.71-.73 14.45-2.5a1.5 1.5 0 0 1 1.88 2.05q-2.6 5.53-5.54 11.12c-2.62 4.98-4.76 6.9-10.35 6.89q-17.87-.06-35.75-.07-6.15 0-8.85 5.39-2.83 5.65-5.59 10.81zm144.88 141.69c-4.43 24.03-23.64 42.86-47.49 46.89q-5.5.93-19.94.94-63.01.02-126.01-.04c-14.09-.02-27.07-4.63-37.91-13.64Q6.6 227.98 2.28 206.97c81.99-33.61 169.66-32.53 251.41-.06zM137.9 221.2l.02-6.66a.54.53.5 0 1 .54-.52l10.79.02a.62.62 0 0 0 .63-.67l-.13-1.92q-.05-.74-.8-.74l-10.49.02q-.52.01-.52-.52l-.04-5.01q0-.84-.84-.82l-1.82.05q-.81.02-.83.83l-.09 4.44q-.02 1.02-1.03 1.01l-4.7-.06q-1.08-.01-.81-1.06l.72-2.8q.24-.94-.71-1.11l-1.83-.33a.88.87-79 0 0-1.02.69q-1.45 7.07-5.9 12.73a1.22 1.22 0 0 0-.03 1.48l1.14 1.55q.7.95 1.36-.04l4.82-7.29a.91.91 0 0 1 .76-.41l6.94-.06q.37-.01.37.37l-.01 6.97a.41.41 0 0 1-.41.41h-9.47q-.74 0-.74.74v1.85q.01.82.82.82l9.47-.04a.32.31.9 0 1 .32.32l-.06 7.81a.32.32 0 0 1-.32.32l-13.51-.03q-1.22 0-1.24 1.22l-.01 1.23q-.01 1 1 1l31.02.03a.97.96-1.9 0 0 .97-1.03l-.09-1.38q-.07-1.08-1.15-1.08l-12.5.03a.57.57 0 0 1-.57-.57l-.01-7.23q0-.58.58-.59l10.03-.12a.56.55 89.5 0 0 .55-.57l-.05-1.99q-.02-.75-.77-.75l-9.8.01a.55.54.5 0 1-.55-.55zm37.59-7.21a.73.73 0 0 1-.73.73h-8.75a.77.76 90 0 0-.76.77l-.01 1.76q0 .75.76.75l9-.01q.5 0 .5.51l-.01 3.91q0 .5-.5.49l-6.43-.11q-.93-.02-.93.9v13.36q0 1.18 1.18 1.22 1.54.05 2.48-1.09.37-.45.96-.46l10.25-.04q.57 0 1 .39.97.89 2.31 1.13 1.52.26 1.52-1.28l-.04-13.42q0-.53-.54-.54l-7.06-.13q-.63-.02-.64-.64l-.05-3.43q-.01-.76.74-.76l8.73-.04q.93 0 .97-.93l.06-1.27a1 .99 1.4 0 0-.99-1.03l-8.84-.11q-.69-.01-.67-.7l.1-4.07a.7.69 85.3 0 1 .55-.66l7.62-1.69a.54.53-21.4 0 0 .35-.79l-1.02-1.77q-.38-.65-1.11-.45-9.12 2.44-18.55 2.32-1.05-.01-.7.98l.47 1.32q.36.99 1.41.94l6.85-.34a.51.5-1.1 0 1 .54.51l-.02 3.77zm-10.71-4.138a.71.71 0 0 0-.117-.997l-5.289-4.177a.71.71 0 0 0-.997.117l-1.116 1.413a.71.71 0 0 0 .117.997l5.289 4.177a.71.71 0 0 0 .997-.117l1.116-1.413zm-93.61 3.688a.55.55 0 0 1 .9.43l-.05 19.59a1.03 1.03 0 0 0 1.04 1.03l2.24-.02q.85-.01.85-.87l-.11-24.26a1.62 1.61 73.8 0 0-2.47-1.36l-6.65 4.18q-.93.59-.92 1.69l.02 1.23q.01 1.04.99.7 2.28-.8 4.16-2.34zm15.89.2l.03 19.8q0 .94.95.96l2.27.03q.82.01.82-.81l-.02-24.18a1.83 1.83 0 0 0-3.08-1.33q-2.59 2.43-6.04 3.82-.97.39-.98 1.44l-.02 1.47q-.01 1.25 1.17.85 2.32-.8 4.23-2.36a.41.41 0 0 1 .67.31zm13.52 4.54l.64-6.26a.34.34 0 0 1 .34-.31l11.7-.05a.69.69 0 0 0 .69-.67l.03-2.23q.01-.74-.72-.74l-14.78.03a.5.5 0 0 0-.5.46l-1.31 13.63q-.05.55.48.68c4.09 1.03 5.28-3.78 9.87-2.57 5.29 1.39 5.69 9.69-.1 11.05q-5.22 1.22-6.83-3.48-.2-.6-.83-.59l-2.44.03q-.58 0-.52.58c1.02 10.81 20.28 9 18.72-3.1q-1.44-11.06-14.16-6.25-.32.12-.28-.21zm63.412 1.069a.86.86 0 0 0-.093-1.213l-5.178-4.438a.86.86 0 0 0-1.213.093l-1.08 1.26a.86.86 0 0 0 .093 1.213l5.178 4.438a.86.86 0 0 0 1.213-.093l1.08-1.26zm.892 5.785a.55.55 0 0 0-.306-.715l-2.303-.921a.55.55 0 0 0-.715.306l-4.865 12.163a.55.55 0 0 0 .306.715l2.303.921a.55.55 0 0 0 .715-.306l4.865-12.163z" fill="#2778f6"/><g fill="#fff"><path d="M138.45 221.75l9.8-.01q.75 0 .77.75l.05 1.99a.56.55 89.5 0 1-.55.57l-10.03.12q-.58.01-.58.59l.01 7.23a.57.57 0 0 0 .57.57l12.5-.03q1.08 0 1.15 1.08l.09 1.38a.97.96-1.9 0 1-.97 1.03l-31.02-.03q-1.01 0-1-1l.01-1.23q.02-1.22 1.24-1.22l13.51.03a.32.32 0 0 0 .32-.32l.06-7.81a.32.31.9 0 0-.32-.32l-9.47.04q-.81 0-.82-.82v-1.85q0-.74.74-.74h9.47a.41.41 0 0 0 .41-.41l.01-6.97q0-.38-.37-.37l-6.94.06a.91.91 0 0 0-.76.41l-4.82 7.29q-.66.99-1.36.04l-1.14-1.55a1.22 1.22 0 0 1 .03-1.48q4.45-5.66 5.9-12.73a.88.87-79 0 1 1.02-.69l1.83.33q.95.17.71 1.11l-.72 2.8q-.27 1.05.81 1.06l4.7.06q1.01.01 1.03-1.01l.09-4.44q.02-.81.83-.83l1.82-.05q.84-.02.84.82l.04 5.01q0 .53.52.52l10.49-.02q.75 0 .8.74l.13 1.92a.62.62 0 0 1-.63.67l-10.79-.02a.54.53.5 0 0-.54.52l-.02 6.66a.55.54.5 0 0 .55.55zm36.52-12.04l-6.85.34q-1.05.05-1.41-.94l-.47-1.32q-.35-.99.7-.98 9.43.12 18.55-2.32.73-.2 1.11.45l1.02 1.77a.54.53-21.4 0 1-.35.79l-7.62 1.69a.7.69 85.3 0 0-.55.66l-.1 4.07q-.02.69.67.7l8.84.11a1 .99 1.4 0 1 .99 1.03l-.06 1.27q-.04.93-.97.93l-8.73.04q-.75 0-.74.76l.05 3.43q.01.62.64.64l7.06.13q.54.01.54.54l.04 13.42q0 1.54-1.52 1.28-1.34-.24-2.31-1.13-.43-.39-1-.39l-10.25.04q-.59.01-.96.46-.94 1.14-2.48 1.09-1.18-.04-1.18-1.22v-13.36q0-.92.93-.9l6.43.11q.5.01.5-.49l.01-3.91q0-.51-.5-.51l-9 .01q-.76 0-.76-.75l.01-1.76a.77.76-90 0 1 .76-.77h8.75a.73.73 0 0 0 .73-.73l.02-3.77a.51.5-1.1 0 0-.54-.51zm8.765 16.981a.58.58 0 0 0-.579-.581l-11.4-.02a.58.58 0 0 0-.581.579l-.01 5.92a.58.58 0 0 0 .579.581l11.4.02a.58.58 0 0 0 .581-.579l.01-5.92z"/><rect x="-4.08" y="-1.61" transform="matrix(.784776 .619779 -.619779 .784776 161.02 208.03)" width="8.16" height="3.22" rx=".71"/><path d="M71.17 213.54q-1.88 1.54-4.16 2.34-.98.34-.99-.7l-.02-1.23q-.01-1.1.92-1.69l6.65-4.18a1.62 1.61 73.8 0 1 2.47 1.36l.11 24.26q0 .86-.85.87l-2.24.02a1.03 1.03 0 0 1-1.04-1.03l.05-19.59a.55.55 0 0 0-.9-.43zm15.22-.11q-1.91 1.56-4.23 2.36-1.18.4-1.17-.85l.02-1.47q.01-1.05.98-1.44 3.45-1.39 6.04-3.82a1.83 1.83 0 0 1 3.08 1.33l.02 24.18q0 .82-.82.81l-2.27-.03q-.95-.02-.95-.96l-.03-19.8a.41.41 0 0 0-.67-.31zm14.19 4.85q-.04.33.28.21 12.72-4.81 14.16 6.25c1.56 12.1-17.7 13.91-18.72 3.1q-.06-.58.52-.58l2.44-.03q.63-.01.83.59 1.61 4.7 6.83 3.48c5.79-1.36 5.39-9.66.1-11.05-4.59-1.21-5.78 3.6-9.87 2.57q-.53-.13-.48-.68l1.31-13.63a.5.5 0 0 1 .5-.46l14.78-.03q.73 0 .72.74l-.03 2.23a.69.69 0 0 1-.69.67l-11.7.05a.34.34 0 0 0-.34.31l-.64 6.26z"/><rect x="-4.27" y="-1.69" transform="matrix(.759271 .650774 -.650774 .759271 160.21 217.2)" width="8.54" height="3.38" rx=".86"/><rect x="-1.79" y="-7.1" transform="matrix(.928486 .371368 -.371368 .928486 160.79 230.55)" width="3.58" height="14.2" rx=".55"/></g><rect fill="#2778f6" x="-6.28" y="-3.54" transform="matrix(.999998 .001745 -.001745 .999998 177.45 229.64)" width="12.56" height="7.08" rx=".58"/></svg>